<svg xmlns="http://www.w3.org/2000/svg" version="1.1" xmlns:xlink="http://www.w3.org/1999/xlink" xmlns:svgjs="http://svgjs.com/svgjs" width="1440" height="560" preserveAspectRatio="none" viewBox="0 0 1440 560"><g mask="url(&quot;#SvgjsMask1027&quot;)" fill="none"><rect width="1440" height="560" x="0" y="0" fill="rgba(92, 87, 87, 0.35)"></rect><path d="M472.91 473.64a0.9 0.9 0 1 0-1.07 1.45z" fill="rgba(204, 61, 83, 1)"></path><path d="M447.25 254.26L469.64 254.26L469.64 297.04L447.25 297.04z" fill="rgba(44, 99, 121, 1)"></path><path d="M1275.37 210.33 a47.62 47.62 0 1 0 95.24 0 a47.62 47.62 0 1 0 -95.24 0z" stroke="rgba(204, 61, 83, 1)"></path><path d="M182.17 421.27 a2.98 2.98 0 1 0 5.96 0 a2.98 2.98 0 1 0 -5.96 0z" stroke="rgba(44, 99, 121, 1)"></path><path d="M912.47 332.98a39.64 39.64 0 1 0-28.48-73.99z" stroke="rgba(44, 99, 121, 1)"></path><path d="M1416.42 236.16L1425.26 236.16L1425.26 255.88L1416.42 255.88z" fill="rgba(204, 61, 83, 1)"></path><path d="M605.13 87.66L629.93 87.66L629.93 112.46L605.13 112.46z" fill="rgba(204, 61, 83, 1)"></path><path d="M835.24 64.18 a11.26 11.26 0 1 0 22.52 0 a11.26 11.26 0 1 0 -22.52 0z" stroke="rgba(204, 61, 83, 1)"></path><path d="M887.82 115.99L924.41 115.99L924.41 152.58L887.82 152.58z" fill="rgba(204, 61, 83, 1)"></path><path d="M434.73 539.27 a10.81 10.81 0 1 0 21.62 0 a10.81 10.81 0 1 0 -21.62 0z" fill="rgba(204, 61, 83, 1)"></path><path d="M252.08 149.3L282.87 149.3L282.87 177.74L252.08 177.74z" stroke="rgba(204, 61, 83, 1)"></path><path d="M1105.33 95.26L1123.7 95.26L1123.7 136.31L1105.33 136.31z" stroke="rgba(204, 61, 83, 1)"></path><path d="M283.33 92.38L334.73 92.38L334.73 143.78L283.33 143.78z" stroke="rgba(44, 99, 121, 1)"></path><path d="M767.02 218.22 a34.46 34.46 0 1 0 68.92 0 a34.46 34.46 0 1 0 -68.92 0z" fill="rgba(204, 61, 83, 1)"></path><path d="M1073.06 394.32 a9.76 9.76 0 1 0 19.52 0 a9.76 9.76 0 1 0 -19.52 0z" stroke="rgba(204, 61, 83, 1)"></path><path d="M1076.27 315.06a38.27 38.27 0 1 0 76.16 7.68z" fill="rgba(204, 61, 83, 1)"></path><path d="M208.39 533.21L246.66 533.21L246.66 571.48L208.39 571.48z" stroke="rgba(204, 61, 83, 1)"></path><path d="M1033.09 58.45L1086.51 58.45L1086.51 109.48L1033.09 109.48z" fill="rgba(44, 99, 121, 1)"></path><path d="M163.78 157.67a27.88 27.88 0 1 0-41.18-37.6z" stroke="rgba(44, 99, 121, 1)"></path><path d="M1205.33 78.14L1213.58 78.14L1213.58 122.07L1205.33 122.07z" fill="rgba(44, 99, 121, 1)"></path><path d="M808.35 55.01L861.66 55.01L861.66 108.32L808.35 108.32z" stroke="rgba(204, 61, 83, 1)"></path><path d="M83.89 499.78a39.85 39.85 0 1 0-61.85 50.27z" fill="rgba(44, 99, 121, 1)"></path><path d="M643.07 476.9L687.58 476.9L687.58 521.41L643.07 521.41z" stroke="rgba(204, 61, 83, 1)"></path><path d="M890.92 406.58a33.58 33.58 0 1 0-49.35 45.56z" stroke="rgba(204, 61, 83, 1)"></path><path d="M526.72 491.94L549.32 491.94L549.32 514.54L526.72 514.54z" fill="rgba(204, 61, 83, 1)"></path><path d="M495.28 386.76L549.96 386.76L549.96 441.44L495.28 441.44z" fill="rgba(44, 99, 121, 1)"></path><path d="M225.35 326.32L278.04 326.32L278.04 335.56L225.35 335.56z" stroke="rgba(44, 99, 121, 1)"></path><path d="M470.76 19.81L522.09 19.81L522.09 71.07L470.76 71.07z" stroke="rgba(204, 61, 83, 1)"></path><path d="M676.04 402.69L724.74 402.69L724.74 451.39L676.04 451.39z" stroke="rgba(204, 61, 83, 1)"></path><path d="M561.87 6.12L607.04 6.12L607.04 51.29L561.87 51.29z" fill="rgba(44, 99, 121, 1)"></path><path d="M861.77 559.65L895.18 559.65L895.18 593.06L861.77 593.06z" fill="rgba(44, 99, 121, 1)"></path><path d="M683.33 24.26L701.74 24.26L701.74 57.4L683.33 57.4z" fill="rgba(44, 99, 121, 1)"></path><path d="M1163.93 286.86L1195.37 286.86L1195.37 318.3L1163.93 318.3z" fill="rgba(204, 61, 83, 1)"></path></g><defs><mask id="SvgjsMask1027"><rect width="1440" height="560" fill="#ffffff"></rect></mask></defs></svg>