<?xml version="1.0" encoding="iso-8859-1"?>
<!-- Generator: Adobe Illustrator 19.0.0, SVG Export Plug-In . SVG Version: 6.00 Build 0)  -->
<svg version="1.1" id="Layer_1" xmlns="http://www.w3.org/2000/svg" xmlns:xlink="http://www.w3.org/1999/xlink" x="0px" y="0px"
	 viewBox="0 0 504.32 504.32" style="enable-background:new 0 0 504.32 504.32;" xml:space="preserve">
<g transform="translate(1 1)">
	<path style="fill:#FFD0A1;" d="M396.273,173.933V191c0,9.387-7.68,17.067-17.067,17.067c0,0,0,34.133-17.067,68.267l0,0
		c-17.067,17.067-61.44,25.6-61.44,25.6l0,0c-4.267-17.92-16.213-42.667-48.64-42.667s-45.227,24.747-48.64,42.667l0,0
		c0,0-43.52-8.533-61.44-24.747c0,0,0,0,0-0.853c-17.92-34.133-17.92-68.267-17.92-68.267c-9.387,0-17.067-7.68-17.067-17.067
		v-17.067c0-10.24,6.827-17.067,17.067-17.067v-34.133c0,0,102.4,0,170.667-42.667c8.533,42.667,51.2,42.667,51.2,42.667h34.133
		v34.133C389.447,156.867,396.273,163.693,396.273,173.933z M310.94,387.267v25.6L251.207,447l-59.733-34.133v-25.6l1.707-3.413
		c15.36,7.68,34.133,11.947,58.027,11.947s43.52-3.413,58.88-11.093L310.94,387.267z"/>
	<path style="fill:#AAB1BA;" d="M293.873,165.4c14.507,0,25.6,11.093,25.6,25.6c0,14.507-11.093,25.6-25.6,25.6
		c-14.507,0-25.6-11.093-25.6-25.6C268.273,176.493,279.367,165.4,293.873,165.4z M208.54,165.4c14.507,0,25.6,11.093,25.6,25.6
		c0,14.507-11.093,25.6-25.6,25.6s-25.6-11.093-25.6-25.6C182.94,176.493,194.033,165.4,208.54,165.4z"/>
	<path style="fill:#80D6FA;" d="M106.14,412.867V498.2H3.74l8.533-25.6C19.953,448.707,20.807,412.867,106.14,412.867z
		 M362.14,412.867V498.2H140.273v-85.333h51.2L251.207,447l59.733-34.133H362.14z M490.14,472.6l8.533,25.6h-102.4v-85.333
		C481.607,412.867,482.46,448.707,490.14,472.6z"/>
	<path style="fill:#ECF4F7;" d="M299.847,301.933L299.847,301.933c0,0,44.373-8.533,61.44-25.6
		c-5.973,58.027-19.627,92.16-52.053,108.373c-15.36,7.68-34.133,11.093-58.88,11.093c-23.893,0-42.667-4.267-58.027-11.947
		c-33.28-17.92-46.933-54.613-52.053-106.667c17.067,17.067,61.44,24.747,61.44,24.747l0,0c4.267-17.92,16.213-42.667,48.64-42.667
		S296.433,284.013,299.847,301.933"/>
	<path style="fill:#FF7474;" d="M106.14,498.2h34.133v-85.333H106.14V498.2z M362.14,498.2h34.133v-85.333H362.14V498.2z"/>
	<path style="fill:#AE938D;" d="M379.207,88.6v34.133h-34.133c0,0-42.667,0-51.2-42.667
		c-68.267,42.667-170.667,42.667-170.667,42.667V88.6c0-42.667-51.2-85.333-51.2-85.333h221.867
		C345.073,3.267,379.207,37.4,379.207,88.6"/>
</g>
<path style="fill:#51565F;" d="M499.673,503.467c-1.707,0-3.413-0.853-4.267-2.56l-8.533-25.6c-0.853-2.56-1.707-5.12-2.56-7.68
	c-6.827-22.187-13.653-47.787-82.773-48.64v81.067c0,2.56-1.707,4.267-4.267,4.267s-4.267-1.707-4.267-4.267v-81.067h-25.6v81.067
	c0,2.56-1.707,4.267-4.267,4.267s-4.267-1.707-4.267-4.267v-81.067h-12.8c-2.56,0-4.267-1.707-4.267-4.267
	c0-2.56,1.707-4.267,4.267-4.267h51.2c80.213,0,88.747,31.573,95.573,55.467c0.853,2.56,1.707,5.12,2.56,7.68l8.533,25.6
	c0.853,2.56-0.853,4.267-2.56,5.12C500.527,503.467,500.527,503.467,499.673,503.467z M4.74,503.467c-0.853,0-0.853,0-1.707,0
	c-2.56-0.853-3.413-3.413-2.56-5.12l8.533-25.6c0.853-2.56,1.707-5.12,2.56-7.68c6.827-23.04,15.36-55.467,95.573-55.467h51.2
	c2.56,0,4.267,1.707,4.267,4.267c0,2.56-1.707,4.267-4.267,4.267h-12.8V499.2c0,2.56-1.707,4.267-4.267,4.267
	c-2.56,0-4.267-1.707-4.267-4.267v-81.067h-25.6V499.2c0,2.56-1.707,4.267-4.267,4.267c-2.56,0-4.267-1.707-4.267-4.267v-81.067
	c-69.12,0.853-76.8,26.453-82.773,48.64c-0.853,2.56-1.707,5.12-2.56,7.68l-8.533,25.6C8.153,502.613,6.447,503.467,4.74,503.467z
	 M252.207,452.267L252.207,452.267L252.207,452.267c-0.853,0-0.853,0-1.707,0c0,0,0,0-0.853,0l-59.733-34.133
	c-1.707-0.853-2.56-2.56-2.56-3.413c0-0.853,0-1.707,0.853-1.707c0.853-1.707,3.413-2.56,5.973-1.707l58.027,33.28l58.027-33.28
	c1.707-0.853,4.267-0.853,5.973,1.707c0,0.853,0.853,1.707,0.853,1.707c0,1.707-0.853,2.56-2.56,3.413l-59.733,34.133
	c0,0,0,0-0.853,0C253.06,452.267,253.06,452.267,252.207,452.267z M252.207,401.067c-71.68,0-104.96-34.987-114.347-121.173
	c-0.853-0.853-0.853-1.707-0.853-2.56c-13.653-27.307-16.213-54.613-17.067-64c-9.387-1.707-17.067-10.24-17.067-21.333v-17.067
	c0-11.947,9.387-21.333,21.333-21.333c2.56,0,4.267,1.707,4.267,4.267c0,2.56-1.707,4.267-4.267,4.267c-7.68,0-12.8,5.12-12.8,12.8
	V192c0,6.827,5.973,12.8,12.8,12.8c2.56,0,4.267,1.707,4.267,4.267c0,0,0,33.28,17.067,66.56l0,0
	c13.653,12.8,44.373,19.627,54.613,22.187C205.273,279.04,218.926,256,252.207,256c33.28,0,46.933,23.04,52.053,41.813
	c10.24-2.56,40.96-10.24,54.613-23.04c16.213-32.427,17.067-65.707,17.067-66.56c0-2.56,1.707-4.267,4.267-4.267
	c6.827,0,12.8-5.973,12.8-12.8V174.08c0-7.68-5.12-12.8-12.8-12.8c-2.56,0-4.267-1.707-4.267-4.267V88.747
	c0-48.64-32.427-81.067-81.067-81.067H84.1c14.507,14.507,44.373,46.933,44.373,81.067v29.867
	c19.627-0.853,105.813-5.12,163.84-41.813c0.853-0.853,2.56-0.853,4.267,0s2.56,1.707,2.56,3.413
	c7.68,38.4,45.227,39.253,46.933,39.253c2.56,0,4.267,1.707,4.267,4.267c0,2.56-1.707,4.267-4.267,4.267
	c-0.853,0-42.667-0.853-53.76-40.107C224.047,128,128.473,128,124.207,128c-2.56,0-4.267-1.707-4.267-4.267V89.6
	c0-40.107-49.493-81.92-49.493-81.92c-1.707-0.853-1.707-3.413-0.853-5.12C70.447,0.853,72.153,0,73.86,0h221.867
	c53.76,0,89.6,35.84,89.6,89.6v64c10.24,1.707,17.067,9.387,17.067,21.333V192c0,10.24-7.68,18.773-17.067,21.333
	c-0.853,10.24-3.413,37.547-17.067,64.853v0.853C358.02,369.493,328.153,401.067,252.207,401.067z M147.247,287.573
	c10.24,75.093,40.107,104.96,104.96,104.96c68.267,0,95.573-26.453,104.96-105.813c-16.213,11.093-41.813,17.067-51.2,18.773
	c1.707,7.68,1.707,13.653,1.707,13.653c0,2.56-1.707,4.267-4.267,4.267l0,0c-2.56,0-4.267-1.707-4.267-4.267
	c0-0.853,0-7.68-1.707-15.36c0,0,0,0,0-0.853l0,0c-4.267-16.213-14.507-39.253-45.227-39.253s-40.96,23.04-45.227,39.253l0,0
	c0,0,0,0,0,0.853c-1.707,8.533-1.707,15.36-1.707,15.36c0,2.56-1.707,4.267-4.267,4.267l0,0c-2.56,0-4.267-1.707-4.267-4.267
	c0,0,0-5.973,1.707-13.653C188.207,303.787,163.46,297.813,147.247,287.573z M260.74,298.667h-17.067
	c-2.56,0-4.267-1.707-4.267-4.267c0-2.56,1.707-4.267,4.267-4.267h17.067c2.56,0,4.267,1.707,4.267,4.267
	C265.007,296.96,263.3,298.667,260.74,298.667z M294.873,221.867c-15.36,0-27.307-11.093-29.867-25.6h-26.453
	c-1.707,14.507-14.507,25.6-29.867,25.6s-28.16-11.947-29.867-27.307l-31.573-16.213c-1.707-0.853-2.56-3.413-1.707-5.973
	c0.853-2.56,3.413-2.56,5.973-1.707l29.013,14.507c3.413-13.653,14.507-23.04,29.013-23.04c15.36,0,27.307,11.093,29.867,25.6
	h26.453c1.707-14.507,14.507-25.6,29.867-25.6c14.507,0,26.453,10.24,29.013,23.04l29.013-14.507c1.707-0.853,4.267,0,5.973,1.707
	c0.853,1.707,0,4.267-1.707,5.973l-31.573,16.213C323.033,209.92,310.233,221.867,294.873,221.867z M294.873,170.667
	c-11.947,0-21.333,9.387-21.333,21.333c0,11.947,9.387,21.333,21.333,21.333s21.333-9.387,21.333-21.333l0,0
	C316.207,180.053,306.82,170.667,294.873,170.667z M188.207,192c0,11.947,9.387,21.333,21.333,21.333s21.333-9.387,21.333-21.333
	c0-11.947-9.387-21.333-21.333-21.333S188.207,180.053,188.207,192L188.207,192z"/>
<g>
</g>
<g>
</g>
<g>
</g>
<g>
</g>
<g>
</g>
<g>
</g>
<g>
</g>
<g>
</g>
<g>
</g>
<g>
</g>
<g>
</g>
<g>
</g>
<g>
</g>
<g>
</g>
<g>
</g>
</svg>
